<svg version="1.2" xmlns="http://www.w3.org/2000/svg" viewBox="0 0 1477 445" width="140" height="40"><defs><clipPath clipPathUnits="userSpaceOnUse" id="cp1"><path d="m-597-1420h2550v3300h-2550z"/></clipPath></defs><style>tspan{white-space:pre}.a{fill:#58cfd4}.b{font-size: 133px;fill: #9a9c9f;font-weight: 400;font-family: "Poppins-Regular", "Poppins"}.c{font-size: 87px;fill: #9a9c9f;font-weight: 400;font-family: "Poppins-Regular", "Poppins"}.d{fill:none;stroke:#808080;stroke-width:6}.e{fill:#ff7d24}.f{fill:none}.g{fill:#fff}</style><g clip-path="url(#cp1)"><path class="a" d="m0.7 41.6h317.8v67.5h-231.6v41.4h219.8v63.1h-219.8v46h233.3v68.9h-319.5zm321 0h96l104.7 214.8h16.4l103.6-214.8h95.4l-139.9 286.9h-134.4zm344.3 0h338.3v73.2h-73.8v-0.4h-248.7v0.4h-15.8zm228.5 91.6v195.3h-91.9v-195.3zm130.1-91.6h91.8v213.7h204.1v73.2h-295.9z"/><text style="transform:matrix(1.562,0,0,1,784.181,443.954)" ><tspan x="0" y="0" class="b">INDIA
</tspan></text><text style="transform:matrix(1,0,0,1,1401.441,82.604)" ><tspan x="0" y="0" class="c">R
</tspan></text><path class="d" d="m1424.5 101c-26.8 0-48.5-21.7-48.5-48.5 0-26.8 21.7-48.5 48.5-48.5 26.8 0 48.5 21.7 48.5 48.5 0 26.8-21.7 48.5-48.5 48.5z"/><path class="e" d="m1154.2 45.1h163.2v183.3h-163.2z"/><path class="f" d="m1260 17.3h85v85"/><path class="a" d="m1260 7h85 10.3v10.3 85h-20.6v-74.8h-74.7z"/><path class="g" d="m1168.5 211.2l60.8-89.6-28.9-24.8 40.8 2.6 14.6-35.2 10.2 39.6 37.9 3-34.4 21.9 8.7 37.1-31.4-26z"/></g></svg>